Tracklist                                                          Maximun bit rate

 01 Phresh Out the Runway ............................................... 296 Kbps
 02 Diamonds ............................................................ 302 Kbps
 03 Numb (feat. Eminem) ................................................. 304 Kbps
 04 Pour It Up .......................................................... 412 Kbps
 05 Loveeeeeee Song (feat. Future) ...................................... 416 Kbps
 06 Jump ................................................................ 335 Kbps
 07 Right Now (feat. David Guetta) ...................................... 343 Kbps
 08 What Now ............................................................ 316 Kbps
 09 Stay (feat. Mikky Ekko) ............................................. 369 Kbps
 10 NobodyΓÇÖs Business (feat. Chris Brown) ............................... 326 Kbps
 11 Love Without Tragedy / Mother Mary .................................. 355 Kbps
 12 Get It Over With .................................................... 411 Kbps
 13 No Love Allowed ..................................................... 377 Kbps
 14 Lost In Paradise .................................................... 427 Kbps
 15 Half of Me .......................................................... 353 Kbps
 16 Diamonds (Dave Aude 100 Extended Mix) ............................... 322 Kbps
 17 Diamonds (Gregor Salto Downtempo Remix) ............................. 330 Kbps
 
18 First Look: 2012 LOUD Tour Live At The O2 [DVD/Video]
 
* Digital Booklet ΓÇô Unapologetic (Deluxe Explicit Version)

-----

General Audio Details

Format                           : AAC
Format/Info                      : Advanced Audio Codec
Format version                   : Version 4
Format profile                   : LC
Codec ID                         : 40
Duration                         : 3mn 42s
Bit rate mode                    : Variable
Bit rate                         : 256 Kbps
Maximum bit rate                 : (See "Maximum bit rate" in Tracklist)
Channel(s)                       : 2 channels
Channel positions                : Front: L R
Sampling rate                    : 44.1 KHz

-----

General [DVD/Video] Details

Format                           : MPEG-4
Codec ID                         : M4V 
File size                        : 290 MiB
Duration                         : 23mn 5s
Overall bit rate                 : 1 759 Kbps
Movie name                       : First Look:  2012 LOUD Tour Live At The O2
Album                            : Unapologetic (Deluxe Version)
Performer                        : Rihanna

Video Details

Format                           : AVC
Format/Info                      : Advanced Video Codec
Format profile                   : Baseline@L3.0
Format settings, CABAC           : No
Format settings, ReFrames        : 1 frame
Format settings, GOP             : M=1, N=25
Codec ID                         : avc1
Codec ID/Info                    : Advanced Video Coding
Duration                         : 23mn 5s
Bit rate mode                    : Variable
Bit rate                         : 1 542 Kbps
Width                            : 640 pixels
Height                           : 359 pixels
Original height                  : 360 pixels
Display aspect ratio             : 16:9
Original display aspect ratio    : 16:9
Frame rate mode                  : Constant
Frame rate                       : 29.970 fps
Color space                      : YUV
Chroma subsampling               : 4:2:0
Bit depth                        : 8 bits
Scan type                        : Progressive
Bits/(Pixel*Frame)               : 0.224
Stream size                      : 255 MiB (88%)
Language                         : English

Audio Details

Format                           : AAC
Format/Info                      : Advanced Audio Codec
Format version                   : Version 4
Format profile                   : LC
Codec ID                         : 40
Duration                         : 23mn 5s
Bit rate mode                    : Constant
Bit rate                         : 214 Kbps
Nominal bit rate                 : 256 Kbps
Channel(s)                       : 2 channels
Channel positions                : Front: L R
Sampling rate                    : 44.1 KHz
Stream size                      : 35.3 MiB (12%)
Language                         : English
